<?xml version="1.0" standalone="no"?>
<!DOCTYPE svg PUBLIC "-//W3C//DTD SVG 20010904//EN"
 "http://www.w3.org/TR/2001/REC-SVG-20010904/DTD/svg10.dtd">
<svg version="1.0" xmlns="http://www.w3.org/2000/svg"
 width="300.000000pt" height="335.000000pt" viewBox="0 0 300.000000 335.000000"
 preserveAspectRatio="xMidYMid meet">
<metadata>
Created by potrace 1.10, written by Peter Selinger 2001-2011
</metadata>
<g transform="translate(0.000000,335.000000) scale(0.100000,-0.100000)"
fill="#000000" stroke="none">
<path d="M1522 3333 c6 -8 42 -30 79 -48 80 -41 124 -90 146 -164 37 -128 -27
-265 -150 -316 -47 -19 -67 -46 -73 -96 -7 -63 -11 -71 -36 -67 -20 3 -24 10
-28 59 -6 66 -18 82 -80 114 -52 27 -106 82 -126 131 -21 49 -18 161 6 209 30
64 98 127 150 140 14 3 36 15 50 25 l25 20 -35 0 c-48 0 -128 -40 -172 -86
-78 -82 -102 -200 -64 -314 24 -69 104 -153 164 -171 l42 -12 0 -85 c0 -83 0
-84 23 -78 12 3 46 6 76 6 l54 0 -6 76 c-5 65 -3 76 11 80 130 41 222 160 222
288 0 144 -105 274 -239 295 -44 7 -49 6 -39 -6z"/>
<path d="M1415 3226 c-40 -17 -90 -75 -105 -121 -51 -156 124 -310 268 -236
145 75 151 265 11 350 -40 24 -126 28 -174 7z m166 -49 c47 -31 82 -104 73
-151 -20 -112 -147 -172 -235 -113 -101 68 -105 199 -9 265 45 31 124 31 171
-1z"/>
<path d="M252 2659 c-56 -11 -137 -55 -169 -94 -15 -16 -37 -54 -51 -84 -21
-46 -24 -63 -20 -135 3 -50 11 -94 22 -114 28 -54 86 -112 140 -140 44 -23 63
-27 136 -27 91 0 133 15 199 70 l31 27 89 -56 c48 -31 90 -56 93 -56 3 0 3 10
1 23 -4 21 7 83 21 117 4 11 -14 27 -67 57 l-74 42 5 54 c16 191 -166 352
-356 316z m172 -64 c90 -43 137 -120 144 -235 5 -83 16 -103 85 -146 26 -17
37 -31 37 -49 0 -37 -15 -38 -73 -5 -67 37 -92 37 -141 0 -148 -112 -351 -55
-416 117 -28 73 -22 135 18 206 33 59 82 102 138 123 52 19 158 13 208 -11z"/>
<path d="M235 2546 c-68 -30 -125 -115 -125 -186 0 -119 128 -220 240 -191
186 50 205 301 28 376 -45 18 -103 19 -143 1z m141 -42 c98 -47 120 -176 43
-253 -64 -64 -163 -62 -226 5 -117 124 29 321 183 248z"/>
<path d="M2637 2659 c-62 -10 -125 -48 -176 -105 -52 -60 -75 -134 -68 -219
l4 -62 -68 -37 -68 -37 15 -34 c8 -19 14 -53 14 -75 0 -22 2 -40 5 -40 2 0 42
22 89 50 l84 50 52 -35 c65 -44 119 -58 195 -52 75 5 149 41 198 96 56 62 70
97 75 187 4 72 1 89 -20 135 -36 78 -71 114 -141 148 -71 34 -122 42 -190 30z
m187 -73 c54 -32 91 -77 117 -146 24 -64 24 -96 -1 -163 -63 -168 -259 -226
-412 -122 -46 31 -66 31 -129 -1 -92 -46 -111 -1 -26 62 l52 39 6 90 c6 107
23 149 79 204 55 54 107 71 196 67 56 -2 82 -9 118 -30z"/>
<path d="M2615 2541 c-78 -36 -115 -95 -115 -182 0 -92 58 -165 150 -190 58
-15 117 0 166 43 89 78 95 192 16 280 -62 69 -138 86 -217 49z m138 -35 c99
-41 127 -172 54 -250 -63 -67 -162 -69 -226 -5 -122 121 13 322 172 255z"/>
<path d="M1395 2355 c-22 -21 -25 -33 -25 -90 0 -45 -4 -65 -12 -65 -7 0 -37
-12 -67 -25 l-55 -26 -51 51 c-72 71 -89 69 -176 -22 -85 -90 -87 -106 -21
-171 l49 -48 -29 -56 c-15 -31 -28 -61 -28 -68 0 -8 -17 -10 -55 -7 -64 5
-111 -11 -122 -42 -4 -11 -6 -61 -4 -111 3 -116 11 -125 103 -125 57 0 70 -3
74 -17 3 -10 14 -42 26 -71 l20 -53 -51 -54 c-28 -29 -51 -60 -51 -67 1 -25
26 -57 87 -112 78 -72 100 -73 164 -10 l46 46 51 -26 c28 -14 58 -26 67 -26
12 0 15 -14 15 -73 0 -64 3 -76 23 -95 20 -19 35 -22 116 -22 84 0 94 2 116
25 22 21 25 33 25 90 0 45 4 65 13 65 6 0 36 12 66 25 l55 26 51 -51 c72 -71
89 -69 176 22 85 90 87 106 21 171 l-48 48 28 57 c15 31 28 62 28 68 0 7 19 9
55 6 64 -5 111 11 122 42 4 11 6 62 4 111 -3 116 -11 125 -103 125 -57 0 -70
3 -74 18 -3 9 -15 41 -26 70 l-20 52 51 55 c28 29 51 60 51 67 -1 25 -26 57
-87 112 -78 72 -100 73 -164 10 l-46 -46 -51 26 c-28 14 -58 26 -67 26 -12 0
-15 14 -15 73 0 64 -3 76 -23 95 -20 19 -35 22 -116 22 -84 0 -94 -2 -116 -25z
m207 -38 c4 -7 8 -35 8 -63 0 -57 22 -85 97 -123 61 -31 88 -27 140 19 25 22
53 40 61 40 20 0 122 -103 122 -123 0 -10 -16 -34 -35 -55 -51 -57 -56 -78
-32 -142 11 -30 32 -67 46 -82 21 -24 33 -28 77 -28 69 0 76 -10 72 -107 l-3
-78 -62 -7 c-82 -9 -96 -18 -126 -82 -43 -91 -43 -96 2 -151 23 -28 41 -58 41
-68 0 -27 -88 -117 -116 -117 -12 0 -44 18 -69 40 -53 46 -65 48 -137 19 -80
-31 -98 -52 -98 -115 0 -68 -20 -84 -107 -84 -78 0 -93 13 -93 83 0 34 -7 60
-18 74 -19 25 -116 73 -148 73 -12 0 -44 -18 -72 -40 -27 -22 -55 -40 -62 -40
-19 0 -120 102 -120 121 0 11 15 36 34 56 58 66 60 74 30 147 -34 85 -52 100
-128 106 l-61 5 -3 88 c-3 98 -7 93 82 100 39 4 65 12 77 24 17 17 69 132 69
152 0 5 -18 31 -40 56 -22 25 -40 56 -40 68 0 29 88 117 117 117 12 0 43 -18
68 -40 53 -46 74 -48 142 -19 75 32 93 54 93 113 0 28 4 56 8 63 8 12 108 23
152 15 14 -2 28 -9 32 -15z"/>
<path d="M1423 1985 c-236 -64 -320 -343 -157 -524 127 -141 336 -144 464 -5
64 70 85 124 84 219 0 91 -20 147 -75 209 -44 51 -97 83 -166 101 -68 18 -82
18 -150 0z m185 -51 c100 -41 172 -149 172 -259 0 -112 -71 -217 -177 -261
-50 -22 -156 -22 -206 0 -108 45 -177 148 -177 262 0 103 63 203 159 254 57
29 161 31 229 4z"/>
<path d="M695 1312 c-5 -5 -47 -31 -92 -57 l-81 -47 -41 30 c-55 40 -117 56
-199 50 -78 -6 -130 -29 -186 -85 -119 -117 -117 -312 5 -431 77 -75 205 -103
312 -66 60 20 131 84 165 148 23 44 27 63 27 144 l1 93 63 36 c48 27 61 39 55
51 -3 10 -9 45 -13 80 -4 42 -9 60 -16 54z m-312 -73 c20 -5 60 -24 87 -41
l51 -31 70 36 70 37 8 -23 c11 -29 6 -40 -30 -61 -63 -37 -73 -58 -74 -154 0
-96 -13 -131 -69 -190 -159 -170 -450 -55 -450 178 -1 143 113 257 259 259 22
1 57 -4 78 -10z"/>
<path d="M235 1171 c-72 -33 -125 -111 -125 -183 1 -75 68 -163 145 -188 116
-38 244 60 245 188 0 144 -140 241 -265 183z m142 -41 c110 -49 121 -201 20
-268 -31 -21 -52 -27 -93 -26 -166 1 -211 226 -60 295 52 24 80 23 133 -1z"/>
<path d="M2273 1262 c-1 -31 -4 -68 -5 -81 -3 -21 7 -30 61 -62 l64 -37 1 -89
c1 -75 5 -96 28 -139 15 -28 48 -70 73 -92 148 -130 386 -78 471 103 33 70 33
180 0 250 -49 104 -136 165 -248 173 -84 6 -147 -11 -204 -54 l-42 -33 -97 60
c-54 32 -98 59 -99 59 0 0 -2 -26 -3 -58z m506 -28 c102 -30 190 -158 178
-261 -16 -147 -147 -255 -291 -240 -142 14 -235 124 -236 275 0 40 -4 82 -10
92 -5 10 -32 32 -60 49 -49 30 -56 43 -44 75 5 12 18 9 80 -22 l75 -37 61 34
c100 55 154 63 247 35z"/>
<path d="M2627 1175 c-92 -32 -149 -137 -126 -229 20 -82 109 -156 187 -156
72 0 150 53 183 125 32 68 19 141 -34 202 -58 65 -132 86 -210 58z m129 -44
c105 -48 126 -174 43 -253 -53 -51 -111 -60 -177 -26 -50 25 -92 88 -92 138 0
49 42 113 90 138 54 27 82 27 136 3z"/>
<path d="M1482 753 l-63 -4 2 -76 2 -77 -44 -15 c-63 -21 -141 -102 -165 -171
-25 -75 -23 -161 5 -227 41 -94 161 -180 237 -171 27 3 24 6 -36 37 -94 49
-126 76 -155 134 -29 59 -35 165 -11 221 20 47 73 104 120 128 69 34 86 56 86
107 0 57 10 74 41 69 21 -3 25 -9 29 -58 6 -69 11 -75 69 -104 126 -64 184
-190 148 -317 -22 -74 -73 -131 -150 -167 -35 -17 -68 -37 -75 -45 -10 -12 -5
-13 39 -6 67 11 131 49 174 106 90 118 85 276 -13 384 -44 49 -106 89 -137 89
-12 0 -15 15 -15 85 0 62 -3 84 -12 83 -7 -1 -41 -3 -76 -5z"/>
<path d="M1411 478 c-157 -78 -137 -313 31 -363 76 -22 136 -5 195 57 39 41
53 76 53 134 0 142 -152 235 -279 172z m159 -37 c42 -22 75 -68 84 -117 9 -47
-26 -120 -73 -151 -47 -32 -126 -32 -171 0 -69 46 -91 143 -47 208 50 75 134
99 207 60z"/>
</g>
</svg>
